<svg xmlns="http://www.w3.org/2000/svg" viewBox="0 0 269 41" width="269" height="41">
	<style>
		tspan { white-space:pre }
		.shp0 { fill: #FFFFFF } 
	</style>
	<path id="LOOKOUT" fill-rule="evenodd" class="shp0" d="M0.77 0.8L11.64 0.8L11.64 30.48L30.62 30.48L30.62 40L0.77 40L0.77 0.8ZM29 20.51L29 20.4C29 9.14 38.07 0.02 50.16 0.02C62.26 0.02 71.22 9.03 71.22 20.29L71.22 20.4C71.22 31.66 62.15 40.78 50.05 40.78C37.96 40.78 29 31.77 29 20.51ZM60.08 20.51L60.08 20.4C60.08 14.69 56.04 9.82 50.05 9.82C44.06 9.82 40.08 14.63 40.08 20.29L40.08 20.4C40.08 26.06 44.17 30.98 50.16 30.98C56.1 30.98 60.08 26.17 60.08 20.51ZM72.73 20.51L72.73 20.4C72.73 9.14 81.8 0.02 93.9 0.02C106 0.02 114.96 9.03 114.96 20.29L114.96 20.4C114.96 31.66 105.89 40.78 93.79 40.78C81.69 40.78 72.73 31.77 72.73 20.51ZM103.81 20.51L103.81 20.4C103.81 14.69 99.78 9.82 93.79 9.82C87.8 9.82 83.82 14.63 83.82 20.29L83.82 20.4C83.82 26.06 87.91 30.98 93.9 30.98C99.84 30.98 103.81 26.17 103.81 20.51ZM117.76 0.8L128.62 0.8L128.62 16.7L142.17 0.8L155 0.8L140.16 17.6L155.5 40L142.51 40L132.6 25.44L128.62 29.81L128.62 40L117.76 40L117.76 0.8ZM151.47 20.51L151.47 20.4C151.47 9.14 160.54 0.02 172.64 0.02C184.73 0.02 193.69 9.03 193.69 20.29L193.69 20.4C193.69 31.66 184.62 40.78 172.52 40.78C160.43 40.78 151.47 31.77 151.47 20.51ZM182.55 20.51L182.55 20.4C182.55 14.69 178.52 9.82 172.52 9.82C166.53 9.82 162.56 14.63 162.56 20.29L162.56 20.4C162.56 26.06 166.64 30.98 172.64 30.98C178.57 30.98 182.55 26.17 182.55 20.51ZM214.13 40.73C203.04 40.73 196.04 35.07 196.04 22.81L196.04 0.8L207.02 0.8L207.02 22.58C207.02 28.24 209.88 30.93 214.24 30.93C218.67 30.93 221.52 28.35 221.52 22.86L221.52 0.8L232.5 0.8L232.5 22.53C232.5 35.13 225.28 40.73 214.14 40.73L214.13 40.73ZM245.71 40L245.71 10.32L234.01 10.32L234.01 0.8L268.34 0.8L268.34 10.32L256.58 10.32L256.58 40L245.71 40Z" />
</svg>